<svg xmlns="http://www.w3.org/2000/svg" aria-label="Savindu Thathsara" role="img" viewBox="0 0 64 64"><defs><linearGradient id="mesh" x1="8" x2="56" y1="6" y2="58" gradientUnits="userSpaceOnUse"><stop stop-color="#121513"/><stop offset="1" stop-color="#0A0C0B"/></linearGradient><linearGradient id="signal" x1="14" x2="50" y1="18" y2="46" gradientUnits="userSpaceOnUse"><stop stop-color="#C8F542"/><stop offset="1" stop-color="#8FB01E"/></linearGradient></defs><rect width="64" height="64" fill="url(#mesh)" rx="16"/><rect width="62" height="62" x="1" y="1" fill="none" stroke="rgba(200,245,66,0.22)" stroke-width="1" rx="15"/><path fill="none" stroke="url(#signal)" stroke-linecap="round" stroke-width="2.4" d="M18 20 C28 14, 36 16, 40 22 C44 28, 36 34, 28 36 C20 38, 16 44, 22 50 C28 56, 42 52, 48 44" opacity=".85"/><circle cx="18" cy="20" r="3.2" fill="#C8F542"/><circle cx="40" cy="22" r="2.6" fill="#C8F542" opacity=".9"/><circle cx="28" cy="36" r="3.6" fill="#C8F542"/><circle cx="22" cy="50" r="2.4" fill="#C8F542" opacity=".85"/><circle cx="48" cy="44" r="3.2" fill="#C8F542"/><rect width="20" height="2.5" x="22" y="56" fill="#C8F542" rx="1.25"/></svg>